<?xml version="1.0" encoding="utf-8"?>
<!-- Generator: Adobe Illustrator 27.2.0, SVG Export Plug-In . SVG Version: 6.00 Build 0)  -->
<svg version="1.1" id="Layer_1" xmlns="http://www.w3.org/2000/svg" xmlns:xlink="http://www.w3.org/1999/xlink" x="0px" y="0px"
	 viewBox="0 0 179.5 170.9" style="enable-background:new 0 0 179.5 170.9;" xml:space="preserve">
<style type="text/css">
	.st0{fill:#A7A9AC;}
	.st1{fill:#FFFFFF;}
	.st2{fill:#231F20;stroke:#231F20;stroke-width:0.5;stroke-miterlimit:10;}
	.st3{fill:#231F20;}
</style>
<g>
	<g>
		<rect x="50.3" y="8.4" class="st0" width="78.5" height="78.5"/>
	</g>
</g>
<g>
	<g>
		<rect x="94.9" y="41.4" class="st1" width="34" height="3.8"/>
	</g>
</g>
<g>
	<g>
		
			<rect x="65.1" y="25.7" transform="matrix(5.050171e-03 -1 1 5.050171e-03 23.502 110.0435)" class="st1" width="3.8" height="35.1"/>
	</g>
</g>
<g>
	<g>
		
			<rect x="103.9" y="46.9" transform="matrix(0.7872 -0.6167 0.6167 0.7872 -18.8816 79.5664)" class="st1" width="3.8" height="40.5"/>
	</g>
</g>
<g>
	<g>
		
			<rect x="54.3" y="65.9" transform="matrix(0.6121 -0.7908 0.7908 0.6121 -25.1212 84.514)" class="st1" width="38.6" height="3.8"/>
	</g>
</g>
<g>
	<g>
		<path d="M89.6,94.8c-26,0-47.1-21.1-47.1-47.1c0-26,21.1-47.1,47.1-47.1c26,0,47.1,21.1,47.1,47.1
			C136.7,73.6,115.6,94.8,89.6,94.8z M89.6,4.4c-23.9,0-43.3,19.4-43.3,43.3s19.4,43.3,43.3,43.3c23.9,0,43.3-19.4,43.3-43.3
			S113.4,4.4,89.6,4.4z"/>
	</g>
</g>
<g>
	<path d="M95.6,91H92V40.4c0-1.3,0.7-2.4,1.9-3l30.6-18.1l1.8,3.1L95.6,40.6V91z"/>
</g>
<g>
	<path d="M87.4,91h-3.6l0-50.4L53,22.5l1.8-3.1l30.6,18.1c1.1,0.6,1.9,1.7,1.9,3V91z"/>
</g>
<g>
	<g>
		<path d="M88.9,33.8c-5.1,0-9.3-4.2-9.3-9.3s4.2-9.3,9.3-9.3s9.3,4.2,9.3,9.3S94,33.8,88.9,33.8z M88.9,19.1c-3,0-5.4,2.4-5.4,5.4
			s2.4,5.4,5.4,5.4s5.4-2.4,5.4-5.4S91.9,19.1,88.9,19.1z"/>
	</g>
</g>
<g>
	<g>
		<path class="st2" d="M14.1,104.8c2,0,4.2,0.5,6.2,1.3c0.1-0.6,0-1.1,0.1-1.1s0.8-0.4,1.2-0.4c0.4,0,1.6,1,1.6,1.7
			c0,0.2-0.2,0.6-0.5,1c1.9,1.2,3.2,2.7,3.2,4.1c0,0.4-0.2,0.3-0.2,0.5v1.2c-0.3,3.7-5.4,6.8-8.7,8.9l-1,0.7l1.4,0.4
			c1.7,0.5,3.5,1.3,5.1,2.2c0.8,0.4,1.3,0.4,2.3,0c4.5-2,9.3-3,12.9-3c1.1,0,1.5,0.9,1.5,1.3c0,0.4-0.6,0.9-1.3,0.7
			c-3.1-0.7-8.3,0.3-13.2,2.6c1.3,1.2,2.1,2.6,2.1,4.1c0,3.2-6.6,10-11,10c-1.3,0-4.3-2.5-4.3-2.8c0.1-0.3-0.1-0.5-0.1-0.9
			c0-0.4,0.2-2.1,0.8-2.8c2.2-2.8,5.2-5.2,8.5-7.1c1-0.6,0.7-0.8,0-1.1c-1.7-0.9-3.9-1.2-6.3-1.2c-1,0-1.6,0.4-1.9,1.3
			c-0.7,1.9-1.3,3.7-1.7,5.2c-0.1,0.3-0.5,0.1-0.5,0.4s0.5,1.5,0.5,2s-0.3,0.4-0.7,0.6s-1.3,0-1.9,0c-0.3,0-0.6-0.2-0.6-0.7
			s0.9-2.4,1-3c0.2-0.6,0.4-0.3,0.5-0.7c0.3-1.2,1.2-3.3,2.3-5.8c-0.2-0.5-0.3-1.1-0.3-1.3c0-0.3,0.5-0.4,1.1-0.5
			c2.4-5.2,5.4-11.4,7.1-14.8c-2-0.7-4.3-1.1-6.1-1.1c-4.8,0-10.3,1.4-10.3,3.7c0,0.3,0.2,0.7,0.3,0.9s-0.6,0.2-0.8,0.2
			c-0.3,0-2.4-1.3-2.3-2.2C0.7,107.1,6.3,104.8,14.1,104.8z M23.2,127.8c-4,2.1-7.6,5.1-9.3,8.5c-0.4,0.9,0,1.8,0.3,2
			c0.3,0.3,1.1,0.5,1.5,0.5c2,0,9.3-4.1,9.3-7.7C24.9,129.9,24.3,128.7,23.2,127.8z M15.2,120c-0.5,1.1-0.2,1.3,0.7,0.9
			c3.5-1.9,8.1-5.4,8.1-8.7c0-1.4-0.9-2.6-2.1-3.4c-0.8,1.1-1.7,2.3-1.8,2.5c-0.2,0.3-0.6,0.4-0.8,0.8C18.1,114,16.7,117,15.2,120z"
			/>
		<path class="st2" d="M39,121.7c0.1-1.3,1-2.1,1.5-2.1c2.6,0,5.1,9.7,19.9,4.2c0.8-0.3,1.5-0.5,2.1-0.5c1.5,0,2.6,0.5,3.4,1.2
			c2.3-2.7,4.3-5.3,5.8-7.4c1.3-3.5,2.6-6.5,3.1-8c1-2,1.7-4.4,2.5-4.4c1,0,1.3,0.6,1.3,1.5c0.2,0,0.6,0.3,0,1.8
			c-0.8,2.1-2.9,6.8-6,10.5c-1,2.8-2.3,7-2.7,11.5c-0.6,5.5,1.3,7.3,4.6,5.7c2.8-1.3,5.6-4.7,5.6-5c0.2-0.1,0.4-0.1,0.6,0
			c0.3,0.1,0.7,0.7,0.3,1.2c-1.1,1.3-3.5,3.7-6,5.1c-3.7,2.2-7.3,0.7-7-6.1c0.1-2.7,1-6.1,2.1-9.5c-1.1,1.4-2.2,2.8-3.4,4.2
			c0.3,0.7,0.4,1.4,0.3,2c0,0.3,0.3-0.2,0.3,0.5c0.1,1.7-1.6,2.7-2.5,2.3c-0.4-0.2-0.5-0.6-0.6-1c0.2-0.5,0.4-1.1,0.4-1.6
			c-1.6,1.9-3.3,3.7-4.8,5.3c-0.8,1.6-2.2,2.7-3.6,3.3c-3.6,1.5-4.1-2.4-2.9-5c1-2.1,2.1-3.8,3.3-5c-3,0.8-6.6,1-9.3,0.2
			c0.3,0.6,0.4,1.2,0.3,1.7c-0.3,1.3-5.3,6.5-7.6,8.2c-1.4,1.1-3,1.4-4.3,1c-3-0.9-2.8-4.1-2.4-6c0.4-2.3,2.6-4.7,2.6-8.9
			C36.1,122.1,37.3,121.4,39,121.7z M39.9,123.8c0,0.2,0,0.3-0.1,0.4c-0.5,1.2-5.6,7.3-4,11.4c0.6,1.4,2.4,0.2,3.9-1
			c0.8-0.7,4-3.5,5.2-6c0.3-0.8,0.3-1.7-0.2-2.5C42.7,125.6,41.1,124.7,39.9,123.8z M64.6,126.1c-0.3-0.7-1-1.1-1.8-1.1
			c-3,0-6.3,4.7-7.2,6.5c-1.9,4.5,0.4,3.6,3.5,0.4C61.1,129.9,63,128,64.6,126.1z"/>
		<path class="st2" d="M86.1,121.9c0.5,0.1,1.4,0.5,1,1.3c-1.3,2.4-3.9,6.5-4.6,10.5c-0.3,1.4,0.3,1.1,0.8,0.6c0.5-0.6,7.8-9,9.4-9
			c1.8,0,2.8,5,2.4,10c0.9-0.6,1.7-1,2.5-1c1.1,0,2,0.9,2.1,2c0.1,0.8-0.3,1.5-0.8,1.7c-0.5,0.2-0.9-0.2-1.7-0.7
			c-0.7,0-1.6,0.5-2.6,1.3c-1,5.3-3.7,12.9-6,15.1c-0.7,0.7-1.7-0.4-2-1.5c-0.8-4,2.6-11.1,6.3-15.1c0.4-3,0.3-6-0.2-8.5
			c-0.2-0.7-0.6-1-1.4-0.4c-4.9,3.4-7.4,10.4-9.9,10.7c-1,0.1-1.9-0.9-1.9-2c0-0.3,0.2-0.7,0.3-1c0.3-4,2.5-9,4.7-13.6
			C84.9,121.8,85.6,121.8,86.1,121.9z M92.4,140.8c-2,2.3-3.8,5.7-3.9,9.1c0,0.8,0.2,1,0.6,0.2C90.5,147.4,91.6,144.1,92.4,140.8z"
			/>
		<path class="st2" d="M108.1,136.6c0.8-3.2,15.4-18.4,20.5-25c0,0,0,0,0.1-0.1c-0.9-2.8-1.9-5.4-3.1-7.8c-0.3-0.5,0.7-1,1.1-1
			c0.4,0,0.9-0.2,1.6,1.2c1,2.1,1.8,4.4,2.6,7c1,0.3,1.8,1.2,1.8,1.6c0,0.4-0.4,1.4-0.8,2.1c0.7,2.9,1.2,5.7,1.6,8.4
			c2.9-0.4,5.7-0.6,8.1-0.6c2.8,0,7,0.5,7,1.1s-2.1,1.2-2.7,1.2c-0.6,0-3.9-0.6-5.4-0.6c-1.7,0-4.1,0.2-6.9,0.5
			c0.5,3.5,0.7,6.5,0.7,8.3c0,2.1-0.4,7.2-0.4,7.5c0,0.3,0.2,0.5-0.1,0.7c0,1-0.7,2.7-1.1,2.7s-1.4-0.6-1.4-1c0-0.3,0.5-0.2,0.6-0.9
			c0.7-3.9,0.7-10.2-0.2-17.1c-4.5,0.6-9.6,1.6-13.5,2.9c-0.8,0.2-1,0.6-1.5,1.3c-2,2.8-3.7,5.5-4.6,7.5c-0.3,0.6,0,1.5-0.4,1.5
			s-0.7-0.4-1-0.4s-0.7,0.6-1.3,0.7C108.5,138.4,107.9,137.2,108.1,136.6z M130.2,117.1c-0.2-1,0-1.4-1-0.6c-1,0.8-2.2,1.8-2.4,2
			c-0.4,0.3-0.7-0.3-1.2,0.1c-1.6,1.4-3.7,3.5-5.7,6.1c-0.4,0.5-0.4,0.9,0.5,0.7c3.5-0.7,7.2-1.6,11-2.1
			C131,121.3,130.7,119.1,130.2,117.1z"/>
		<path class="st2" d="M145.8,121.4c0-0.3,0.7-0.7,1.1-0.7s1.8,0.7,2,1.2c0.4,1-1.4,4.8-2.3,7.7c-0.1,0.4,0.1,0.5,0.3,0.2
			c1.6-1.9,8.4-7.6,10.5-7.6c0.8,0,2.4,1.7,2.4,3c0,1.2-1,2-2,1.8c-0.7-0.1-1-1.8-1.6-1.9c-2.7,0.3-7.6,4.8-10.3,8
			c-0.4,0.8-1,3.1-1.6,4c-0.6-0.1-1,0.5-1.3,0.5s-1.3-0.9-1-1.5c1.4-3.3,3.8-9.3,4-13.7C146,122.3,145.8,121.7,145.8,121.4z"/>
		<path class="st2" d="M173.2,109c0,0.7-0.6,2.2-1,3s-1,0.8-1.4,1.7c-0.2,0.4-1.3,2.7-2.7,5.8c3.5-0.4,7.2-1.1,10-2
			c0.5,0,1,0.7-0.1,1.2c-2.1,1-6.6,2.2-10.7,2.8c-1.3,3.1-2.5,6.8-3,9.8c-0.6,3.5-0.7,6,1.1,6c2,0,3.2-1.1,4.3-2.1
			c0.3,0.2,0.4,0.7,0.1,1.1c-0.5,0.7-2,1.8-2.4,2.1c-0.3,0.3-2.1,0.7-2.5,0.7c-0.4,0-2-0.4-2.3-1.1c-0.1-0.3,0-0.5,0-0.6
			s-0.2,0-0.3-0.2c-0.1-0.2-0.5-1.7-0.4-2.8c-0.2-2.7,1.6-7.9,3.4-12.7c-0.7,0.1-1.4,0.1-2,0.1c-2.1,0-4.1-0.1-6.3-0.9
			c-1.7-0.3-1.4-2.1-0.2-2.1c1.3,0,1.6,1.1,6.5,1.1c0.9,0,1.8,0,2.8-0.1c0.9-2.3,1.8-4.5,2.6-6.3c0.6-1.3,1.1-3.5,1.3-5.1
			c0-0.4,0.9-0.7,1.3-0.7C172.4,107.5,173.2,108.3,173.2,109z"/>
	</g>
</g>
<g>
	<g>
		<path class="st3" d="M7,162.9c-0.1-0.1-0.1-0.2-0.2-0.4c0-0.2-0.1-0.4-0.1-0.5c0.3,0,0.6,0.1,0.8,0.1c0.3,0,0.5,0,0.7,0
			c0.2-0.3,0.3-0.6,0.5-1c0.2-0.3,0.4-0.6,0.5-0.9c0.2-0.3,0.3-0.5,0.5-0.7c0.2-0.2,0.3-0.3,0.4-0.4c0.1,0,0.2,0,0.4,0.1
			s0.3,0.1,0.5,0.1c0.2,0.1,0.3,0.1,0.5,0.2c0.1,0.1,0.2,0.1,0.3,0.2c-0.3,0.4-0.6,0.8-0.8,1.2c-0.2,0.4-0.5,0.8-0.7,1.2
			c0.2,0,0.4,0,0.7,0s0.4,0,0.7-0.1c0.1,0.1,0.1,0.1,0.1,0.2c0,0.1,0.1,0.2,0.1,0.3c-0.5,0.2-1.2,0.3-1.9,0.3
			c-0.3,0.5-0.5,1-0.7,1.6s-0.4,1-0.5,1.5c-0.1,0.5-0.3,0.9-0.3,1.4c-0.1,0.4-0.1,0.8-0.1,1.1c0,0.5,0.2,0.7,0.5,0.8
			c0.3,0,0.6-0.1,0.9-0.3c0.3-0.1,0.6-0.3,0.8-0.5c0.1,0.1,0.1,0.2,0.1,0.2c-0.1,0.1-0.2,0.2-0.3,0.3c-0.2,0.1-0.3,0.3-0.5,0.4
			c-0.2,0.1-0.4,0.2-0.5,0.3c-0.2,0.1-0.3,0.1-0.4,0.2c-0.3,0-0.5,0-0.8-0.2c-0.3-0.1-0.5-0.2-0.7-0.4c-0.2-0.2-0.4-0.3-0.6-0.5
			c-0.1-0.2-0.2-0.4-0.2-0.6c0-0.3,0-0.6,0.1-1c0.1-0.4,0.2-0.8,0.3-1.3s0.3-1,0.4-1.5c0.2-0.5,0.4-1,0.6-1.5L7,162.9z"/>
		<path class="st3" d="M24.4,162.4c0.1,0,0.2,0,0.4,0.1c0.1,0,0.3,0.1,0.4,0.1c0.1,0.1,0.2,0.1,0.3,0.2c0.1,0.1,0.1,0.1,0.1,0.2
			c-0.2,0.5-0.4,0.9-0.6,1.4c-0.2,0.5-0.3,0.9-0.5,1.3c-0.1,0.4-0.2,0.8-0.3,1.2c-0.1,0.4-0.1,0.7-0.1,1c0,0.3,0,0.6,0.1,0.8
			c0.1,0.2,0.2,0.3,0.3,0.4c-0.1,0.1-0.3,0.2-0.5,0.2c-0.2,0.1-0.4,0.1-0.6,0.1c-0.6,0-0.9-0.4-0.9-1.2c0-0.6,0.2-1.5,0.6-2.6
			c-0.2,0.5-0.5,1-0.7,1.4c-0.3,0.4-0.6,0.8-0.8,1.2c-0.3,0.3-0.6,0.6-0.9,0.8s-0.6,0.3-0.8,0.4c-0.4,0-0.7-0.2-1-0.5
			s-0.4-0.8-0.4-1.4c0-0.6,0.1-1.3,0.4-1.9s0.6-1.3,1-1.9c0.4-0.6,0.8-1.1,1.3-1.5c0.5-0.4,0.9-0.6,1.4-0.6c0.1,0,0.2,0.1,0.4,0.2
			c0.1,0.1,0.3,0.2,0.4,0.3c0.1,0.1,0.2,0.3,0.3,0.4c0.1,0.1,0.1,0.3,0.2,0.3c-0.4,0.1-0.9,0.3-1.3,0.6c-0.5,0.4-0.9,0.8-1.2,1.3
			c-0.4,0.5-0.7,1.1-0.9,1.6c-0.2,0.6-0.3,1.1-0.3,1.6c0,0.2,0.1,0.3,0.2,0.4c0.3-0.1,0.7-0.3,1.1-0.8c0.4-0.5,0.9-1.2,1.5-2.2
			c0.1-0.2,0.2-0.4,0.4-0.7c0.1-0.2,0.3-0.5,0.4-0.8c0.1-0.3,0.3-0.5,0.4-0.8C24.1,162.9,24.3,162.6,24.4,162.4z"/>
		<path class="st3" d="M34.2,162.6c-0.1-0.1-0.1-0.2-0.2-0.4c0-0.2-0.1-0.4-0.1-0.5c0.3,0,0.6,0.1,0.8,0.1c0.3,0,0.5,0,0.7,0
			c0.2-0.3,0.3-0.6,0.5-1c0.2-0.3,0.4-0.6,0.5-0.9c0.2-0.3,0.3-0.5,0.5-0.7c0.2-0.2,0.3-0.3,0.4-0.4c0.1,0,0.2,0,0.4,0.1
			s0.3,0.1,0.5,0.1c0.2,0.1,0.3,0.1,0.5,0.2c0.1,0.1,0.2,0.1,0.3,0.2c-0.3,0.4-0.6,0.8-0.8,1.2c-0.2,0.4-0.5,0.8-0.7,1.2
			c0.2,0,0.4,0,0.7,0s0.4,0,0.7-0.1c0.1,0.1,0.1,0.1,0.1,0.2c0,0.1,0.1,0.2,0.1,0.3c-0.5,0.2-1.2,0.3-1.9,0.3
			c-0.3,0.5-0.5,1-0.7,1.6c-0.2,0.5-0.4,1-0.5,1.5c-0.1,0.5-0.3,0.9-0.3,1.4c-0.1,0.4-0.1,0.8-0.1,1.1c0,0.5,0.2,0.7,0.5,0.8
			c0.3,0,0.6-0.1,0.9-0.3c0.3-0.1,0.6-0.3,0.8-0.5c0.1,0.1,0.1,0.2,0.1,0.2c-0.1,0.1-0.2,0.2-0.3,0.3c-0.2,0.1-0.3,0.3-0.5,0.4
			c-0.2,0.1-0.4,0.2-0.5,0.3c-0.2,0.1-0.3,0.1-0.4,0.2c-0.3,0-0.5,0-0.8-0.2c-0.3-0.1-0.5-0.2-0.7-0.4c-0.2-0.2-0.4-0.3-0.6-0.5
			c-0.1-0.2-0.2-0.4-0.2-0.6c0-0.3,0-0.6,0.1-1c0.1-0.4,0.2-0.8,0.3-1.3s0.3-1,0.4-1.5c0.2-0.5,0.4-1,0.6-1.5L34.2,162.6z"/>
		<path class="st3" d="M46.9,162.4c-0.1-0.1-0.1-0.2-0.2-0.4c0-0.2-0.1-0.4-0.1-0.5c0.3,0,0.6,0.1,0.8,0.1c0.3,0,0.5,0,0.7,0
			c0.2-0.3,0.3-0.6,0.5-1c0.2-0.3,0.4-0.6,0.5-0.9c0.2-0.3,0.3-0.5,0.5-0.7c0.2-0.2,0.3-0.3,0.4-0.4c0.1,0,0.2,0,0.4,0.1
			s0.3,0.1,0.5,0.1c0.2,0.1,0.3,0.1,0.5,0.2c0.1,0.1,0.2,0.1,0.3,0.2c-0.3,0.4-0.6,0.8-0.8,1.2c-0.2,0.4-0.5,0.8-0.7,1.2
			c0.2,0,0.4,0,0.7,0s0.4,0,0.7-0.1c0.1,0.1,0.1,0.1,0.1,0.2c0,0.1,0.1,0.2,0.1,0.3c-0.5,0.2-1.2,0.3-1.9,0.3
			c-0.3,0.5-0.5,1-0.7,1.6s-0.4,1-0.5,1.5c-0.1,0.5-0.3,0.9-0.3,1.4c-0.1,0.4-0.1,0.8-0.1,1.1c0,0.5,0.2,0.7,0.5,0.8
			c0.3,0,0.6-0.1,0.9-0.3c0.3-0.1,0.6-0.3,0.8-0.5c0.1,0.1,0.1,0.2,0.1,0.2c-0.1,0.1-0.2,0.2-0.3,0.3c-0.2,0.1-0.3,0.3-0.5,0.4
			c-0.2,0.1-0.4,0.2-0.5,0.3s-0.3,0.1-0.4,0.2c-0.3,0-0.5,0-0.8-0.2c-0.3-0.1-0.5-0.2-0.7-0.4c-0.2-0.2-0.4-0.3-0.6-0.5
			c-0.1-0.2-0.2-0.4-0.2-0.6c0-0.3,0-0.6,0.1-1c0.1-0.4,0.2-0.8,0.3-1.3s0.3-1,0.4-1.5c0.2-0.5,0.4-1,0.6-1.5L46.9,162.4z"/>
		<path class="st3" d="M60.8,169.1c-0.6-0.1-1.1-0.3-1.5-0.8c-0.4-0.5-0.6-1.1-0.6-1.8c0-0.4,0.1-0.9,0.2-1.4
			c0.1-0.5,0.3-0.9,0.5-1.4c0.2-0.4,0.5-0.9,0.8-1.3c0.3-0.4,0.7-0.7,1-1c0.6-0.5,1.1-0.7,1.7-0.7c0.3,0.2,0.7,0.6,1,1.1
			c0.1,0,0.1,0,0.1,0c0,0,0.1,0,0.1,0c0.6,0,0.9,0.5,0.9,1.5c0,0.7-0.1,1.3-0.3,2c-0.2,0.6-0.5,1.2-0.9,1.7
			c-0.4,0.5-0.9,0.9-1.4,1.3C62,168.7,61.4,169,60.8,169.1z M61.5,164c-0.2,0.3-0.4,0.5-0.5,0.8c-0.2,0.3-0.3,0.6-0.4,0.9
			c-0.1,0.3-0.2,0.6-0.3,0.9c-0.1,0.3-0.1,0.5-0.1,0.7c0,0.3,0,0.5,0.1,0.7c0.1,0.2,0.2,0.4,0.3,0.4c0.5-0.1,0.9-0.3,1.3-0.6
			c0.4-0.3,0.8-0.7,1-1.1c0.3-0.4,0.5-1,0.7-1.5s0.2-1.2,0.2-1.8c0-0.3,0-0.5-0.1-0.7c0-0.2-0.1-0.3-0.2-0.4
			c-0.5,0.1-0.9,0.4-1.3,0.7C62.1,163.3,61.8,163.6,61.5,164z"/>
		<path class="st3" d="M75,168.9c-0.6-0.1-1.1-0.3-1.5-0.8c-0.4-0.5-0.6-1.1-0.6-1.8c0-0.4,0.1-0.9,0.2-1.4c0.1-0.5,0.3-0.9,0.5-1.4
			c0.2-0.4,0.5-0.9,0.8-1.3c0.3-0.4,0.7-0.7,1-1c0.6-0.5,1.1-0.7,1.7-0.7c0.3,0.2,0.7,0.6,1,1.1c0.1,0,0.1,0,0.1,0c0,0,0.1,0,0.1,0
			c0.6,0,0.9,0.5,0.9,1.5c0,0.7-0.1,1.3-0.3,2c-0.2,0.6-0.5,1.2-0.9,1.7c-0.4,0.5-0.9,0.9-1.4,1.3C76.2,168.5,75.6,168.8,75,168.9z
			 M75.8,163.8c-0.2,0.3-0.4,0.5-0.5,0.8c-0.2,0.3-0.3,0.6-0.4,0.9c-0.1,0.3-0.2,0.6-0.3,0.9c-0.1,0.3-0.1,0.5-0.1,0.7
			c0,0.3,0,0.5,0.1,0.7c0.1,0.2,0.2,0.4,0.3,0.4c0.5-0.1,0.9-0.3,1.3-0.6c0.4-0.3,0.8-0.7,1-1.1c0.3-0.4,0.5-1,0.7-1.5
			s0.2-1.2,0.2-1.8c0-0.3,0-0.5-0.1-0.7c0-0.2-0.1-0.3-0.2-0.4c-0.5,0.1-0.9,0.4-1.3,0.7C76.3,163.1,76,163.4,75.8,163.8z"/>
		<path class="st3" d="M103.8,161.5c0,0.2,0,0.4-0.1,0.6c-0.1,0.2-0.1,0.4-0.2,0.6c-0.1,0.2-0.2,0.3-0.3,0.5
			c-0.1,0.1-0.2,0.2-0.3,0.2c-0.1,0-0.2-0.1-0.2-0.2c0,0,0-0.1,0-0.2c0-0.1,0.1-0.1,0.1-0.2c0-0.1,0.1-0.2,0.1-0.3s0-0.2,0-0.2
			c0-0.2,0-0.3-0.1-0.4c-0.1-0.1-0.2-0.2-0.3-0.2c-0.4,0-0.8,0.3-1,0.8c-0.2,0.5-0.3,1.3-0.3,2.4c0,0.1,0,0.2,0,0.2
			c0.2,0,0.4,0,0.6,0c0.2,0,0.4,0,0.5,0c0,0,0,0.1,0,0.1c0,0.1,0,0.2-0.1,0.2c-0.2,0.1-0.4,0.1-0.6,0.1c-0.1,0-0.3,0.1-0.3,0.1
			c-0.1,0-0.1,0.1-0.1,0.1c0,0,0,0.1,0,0.2c0,0.1,0,0.2,0,0.3c0,0.1,0,0.2,0,0.3c0,0.9-0.2,1.6-0.7,2.2c-0.5,0.6-1.2,0.9-2.1,1
			c-0.2,0-0.3-0.1-0.5-0.1c-0.2-0.1-0.3-0.2-0.5-0.3c-0.1-0.1-0.3-0.2-0.4-0.4c-0.1-0.1-0.2-0.3-0.2-0.4c0-0.4,0.1-0.8,0.2-1.2
			c0.2-0.4,0.4-0.7,0.7-1c0.3-0.3,0.6-0.5,1.1-0.7c0.4-0.2,0.8-0.3,1.3-0.3c0-0.3,0-0.5-0.1-0.8c-0.1-0.3-0.1-0.5-0.2-0.8
			c-0.1-0.2-0.1-0.5-0.2-0.7c-0.1-0.2-0.1-0.5-0.1-0.7c0-0.3,0.1-0.6,0.2-0.9c0.1-0.3,0.3-0.6,0.5-0.8c0.2-0.2,0.4-0.5,0.7-0.6
			s0.5-0.3,0.8-0.4c0.1,0,0.3,0.1,0.5,0.3c0.2,0.2,0.4,0.3,0.6,0.5c0.2,0.2,0.4,0.4,0.5,0.6C103.6,161.2,103.7,161.4,103.8,161.5z
			 M98.5,169c0.3-0.1,0.5-0.3,0.7-0.5c0.2-0.2,0.4-0.4,0.6-0.7c0.2-0.3,0.3-0.5,0.4-0.8c0.1-0.3,0.1-0.6,0.1-0.9
			c-0.2,0-0.5,0.1-0.7,0.3c-0.3,0.2-0.5,0.4-0.7,0.6c-0.2,0.2-0.4,0.5-0.6,0.7c-0.1,0.3-0.2,0.5-0.2,0.7
			C98.1,168.7,98.2,168.9,98.5,169z"/>
		<path class="st3" d="M111.8,161.7c-0.1-0.1-0.1-0.2-0.2-0.4c0-0.2-0.1-0.4-0.1-0.5c0.3,0,0.6,0.1,0.8,0.1c0.3,0,0.5,0,0.7,0
			c0.2-0.3,0.3-0.6,0.5-1c0.2-0.3,0.4-0.6,0.5-0.9c0.2-0.3,0.3-0.5,0.5-0.7c0.2-0.2,0.3-0.3,0.4-0.4c0.1,0,0.2,0,0.4,0.1
			s0.3,0.1,0.5,0.1c0.2,0.1,0.3,0.1,0.5,0.2c0.1,0.1,0.2,0.1,0.3,0.2c-0.3,0.4-0.6,0.8-0.8,1.2c-0.2,0.4-0.5,0.8-0.7,1.2
			c0.2,0,0.4,0,0.7,0c0.2,0,0.4,0,0.7-0.1c0.1,0.1,0.1,0.1,0.1,0.2c0,0.1,0.1,0.2,0.1,0.3c-0.5,0.2-1.2,0.3-1.9,0.3
			c-0.3,0.5-0.5,1-0.7,1.6c-0.2,0.5-0.4,1-0.5,1.5c-0.1,0.5-0.3,0.9-0.3,1.4s-0.1,0.8-0.1,1.1c0,0.5,0.2,0.7,0.5,0.8
			c0.3,0,0.6-0.1,0.9-0.3c0.3-0.1,0.6-0.3,0.8-0.5c0.1,0.1,0.1,0.2,0.1,0.2c-0.1,0.1-0.2,0.2-0.3,0.3c-0.2,0.1-0.3,0.3-0.5,0.4
			s-0.4,0.2-0.5,0.3s-0.3,0.1-0.4,0.2c-0.3,0-0.5,0-0.8-0.2c-0.3-0.1-0.5-0.2-0.7-0.4c-0.2-0.2-0.4-0.3-0.6-0.5
			c-0.1-0.2-0.2-0.4-0.2-0.6c0-0.3,0-0.6,0.1-1c0.1-0.4,0.2-0.8,0.3-1.3s0.3-1,0.4-1.5s0.4-1,0.6-1.5L111.8,161.7z"/>
		<path class="st3" d="M128.1,167.4c-0.2-0.2-0.3-0.4-0.4-0.6c-0.1-0.3-0.1-0.5-0.1-0.7c0-0.2,0-0.4,0.1-0.6c0,0-0.1,0.1-0.3,0.3
			c-0.2,0.2-0.3,0.4-0.5,0.6c-0.2,0.2-0.4,0.5-0.5,0.7s-0.3,0.4-0.4,0.5c-0.1,0.2-0.3,0.3-0.4,0.4c-0.1,0.1-0.2,0.1-0.3,0.1
			c-0.2,0-0.4,0-0.5-0.1c-0.2-0.1-0.4-0.1-0.5-0.2c-0.2-0.1-0.3-0.2-0.4-0.4c-0.1-0.2-0.2-0.3-0.3-0.5c0-0.3,0-0.6,0-0.8
			c0-0.2,0-0.4,0.1-0.6c0.1-0.4,0.2-0.9,0.4-1.4c0.2-0.5,0.4-1,0.6-1.5c0.2-0.5,0.5-1,0.8-1.4c0.3-0.4,0.6-0.8,1-1
			c0.1,0,0.2,0,0.3,0c0.1,0,0.3,0,0.4,0.1c0.1,0,0.3,0.1,0.4,0.2s0.2,0.1,0.3,0.2c-0.1,0.1-0.3,0.5-0.7,1.1
			c-0.4,0.6-0.8,1.5-1.3,2.7c-0.1,0.1-0.1,0.3-0.2,0.5c-0.1,0.2-0.1,0.5-0.2,0.7c-0.1,0.3-0.1,0.5-0.2,0.7s-0.1,0.4-0.1,0.6
			c0,0.1,0,0.2,0,0.2c0,0,0.1,0.1,0.1,0.1c0.2-0.1,0.4-0.2,0.6-0.5c0.2-0.3,0.6-0.8,1-1.4c0.1-0.2,0.2-0.3,0.4-0.5
			c0.1-0.2,0.3-0.4,0.4-0.6c0.1-0.2,0.3-0.5,0.4-0.7c0.1-0.2,0.2-0.5,0.3-0.7c0-0.1,0.1-0.3,0.2-0.5c0.1-0.2,0.2-0.4,0.3-0.6
			c0.1-0.2,0.2-0.4,0.4-0.6c0.1-0.2,0.3-0.4,0.5-0.6c0.1,0,0.3,0,0.5,0c0.2,0,0.3,0.1,0.5,0.1c0.1,0,0.3,0.1,0.4,0.2
			c0.1,0.1,0.2,0.1,0.2,0.2c-0.2,0.5-0.4,1-0.6,1.4c-0.2,0.5-0.5,0.9-0.7,1.4s-0.4,0.9-0.5,1.4s-0.2,0.9-0.2,1.3
			c0,0.2,0,0.4,0.1,0.6c0,0.2,0.1,0.3,0.1,0.4c0,0.1,0.1,0.2,0.1,0.3c0,0.1,0.1,0.1,0.1,0.2c0,0,0,0,0,0c0,0,0,0,0,0
			c-0.1,0-0.2,0-0.3,0c-0.1,0-0.3-0.1-0.4-0.1c-0.1-0.1-0.3-0.1-0.4-0.2C128.4,167.6,128.2,167.5,128.1,167.4z"/>
		<path class="st3" d="M142.2,160c0.2,0,0.5,0.1,0.8,0.2c0.3,0.1,0.5,0.3,0.8,0.5c-0.1-0.4-0.1-0.8-0.2-1.2s-0.2-0.8-0.4-1.2
			c-0.2-0.4-0.4-0.9-0.6-1.3c-0.3-0.5-0.6-1-1-1.7c0-0.1,0.1-0.2,0.2-0.3c0.1-0.1,0.2-0.3,0.4-0.4c0.1-0.1,0.3-0.2,0.5-0.3
			s0.3-0.1,0.4-0.2c0.3,0.3,0.6,0.8,0.9,1.3c0.3,0.5,0.5,1,0.7,1.6c0.2,0.6,0.4,1.2,0.5,1.8c0.1,0.6,0.2,1.2,0.2,1.8
			c0,0.6,0,1.1-0.2,1.7c-0.1,0.6-0.3,1.2-0.5,1.8c-0.2,0.6-0.5,1.1-0.8,1.6c-0.3,0.5-0.6,1-0.9,1.4c-0.3,0.4-0.7,0.7-1.1,1
			c-0.4,0.3-0.7,0.4-1.1,0.5c-0.8-0.1-1.3-0.3-1.7-0.7c-0.4-0.4-0.6-0.9-0.6-1.6c0-0.4,0-0.8,0.2-1.2s0.3-0.9,0.4-1.3
			c0.2-0.4,0.4-0.9,0.7-1.3c0.2-0.4,0.5-0.8,0.8-1.1c0.3-0.3,0.6-0.6,0.9-0.8S141.9,160,142.2,160z M140.6,167.8
			c0.4-0.1,0.8-0.4,1.1-0.9c0.4-0.4,0.7-1,1-1.6c0.3-0.6,0.5-1.3,0.7-1.9c0.2-0.7,0.3-1.4,0.3-2c0-0.2,0-0.3,0-0.3c0,0,0-0.1,0-0.1
			c-0.3,0.1-0.5,0.3-0.8,0.6c-0.3,0.3-0.6,0.6-0.9,0.9c-0.3,0.3-0.6,0.7-0.8,1.1c-0.3,0.4-0.5,0.8-0.7,1.2c-0.2,0.4-0.4,0.8-0.5,1.2
			c-0.1,0.4-0.2,0.7-0.2,1C139.9,167.5,140.1,167.8,140.6,167.8z"/>
		<path class="st3" d="M152.8,166.4c0-0.1,0-0.2,0-0.4c0-0.1,0-0.3,0.1-0.6c0-0.2,0.1-0.5,0.2-0.9c0.1-0.3,0.2-0.8,0.3-1.3
			c0-0.1,0.1-0.3,0.1-0.5s0.2-0.5,0.3-0.8c0.1-0.3,0.3-0.5,0.4-0.8c0.2-0.3,0.4-0.4,0.6-0.6c0.2,0,0.4,0.2,0.7,0.3
			c0.3,0.2,0.6,0.4,0.8,0.7c-0.2,0.3-0.5,0.6-0.6,0.9s-0.3,0.6-0.4,0.9c-0.1,0.3-0.3,0.6-0.4,0.9c-0.1,0.3-0.2,0.7-0.4,1
			c-0.1,0.3-0.2,0.6-0.3,0.9c-0.1,0.3-0.1,0.6-0.2,0.8c0,0.2,0,0.3,0,0.4c0,0.1,0,0.1-0.1,0.1c0,0-0.1,0-0.3-0.1s-0.3-0.1-0.4-0.2
			c-0.1-0.1-0.3-0.3-0.4-0.4C152.9,166.8,152.8,166.6,152.8,166.4z M155.8,159.3c0-0.1,0-0.2,0-0.3c-0.1-0.1-0.1-0.1-0.1-0.2
			s-0.1-0.2-0.1-0.3c0-0.1,0-0.2,0-0.4c0-0.2,0.1-0.4,0.1-0.5c0-0.2,0.1-0.4,0.2-0.6c0.1-0.2,0.1-0.4,0.2-0.6c0.1,0,0.3,0,0.5,0.1
			c0.2,0.1,0.4,0.2,0.6,0.3c0.2,0.1,0.4,0.2,0.5,0.4c0.2,0.1,0.3,0.3,0.4,0.4c-0.1,0.1-0.3,0.3-0.5,0.5c-0.2,0.2-0.4,0.4-0.6,0.7
			c-0.2,0.2-0.3,0.5-0.5,0.7c-0.1,0.2-0.2,0.4-0.3,0.4c-0.1,0-0.2-0.1-0.3-0.2C155.9,159.4,155.8,159.4,155.8,159.3z"/>
		<path class="st3" d="M165.6,167.9c-0.6-0.1-1.1-0.3-1.5-0.8c-0.4-0.5-0.6-1.1-0.6-1.8c0-0.4,0.1-0.9,0.2-1.4
			c0.1-0.5,0.3-0.9,0.5-1.4c0.2-0.4,0.5-0.9,0.8-1.3c0.3-0.4,0.7-0.7,1-1c0.6-0.5,1.1-0.7,1.7-0.7c0.3,0.2,0.7,0.6,1,1.1
			c0.1,0,0.1,0,0.1,0c0,0,0.1,0,0.1,0c0.6,0,0.9,0.5,0.9,1.5c0,0.7-0.1,1.3-0.3,2s-0.5,1.2-0.9,1.7s-0.9,0.9-1.4,1.3
			C166.9,167.5,166.3,167.7,165.6,167.9z M166.4,162.7c-0.2,0.3-0.4,0.5-0.5,0.8c-0.2,0.3-0.3,0.6-0.4,0.9c-0.1,0.3-0.2,0.6-0.3,0.9
			c-0.1,0.3-0.1,0.5-0.1,0.7c0,0.3,0,0.5,0.1,0.7c0.1,0.2,0.2,0.4,0.3,0.4c0.5-0.1,0.9-0.3,1.3-0.6c0.4-0.3,0.8-0.7,1-1.1
			c0.3-0.4,0.5-1,0.7-1.5c0.2-0.6,0.2-1.2,0.2-1.8c0-0.3,0-0.5-0.1-0.7c0-0.2-0.1-0.3-0.2-0.4c-0.5,0.1-0.9,0.4-1.3,0.7
			C167,162.1,166.7,162.4,166.4,162.7z"/>
	</g>
</g>
</svg>
